<?xml version="1.0" encoding="utf-8"?>
<!-- Generator: Adobe Illustrator 22.1.0, SVG Export Plug-In . SVG Version: 6.00 Build 0)  -->
<svg version="1.1" id="Layer_1" xmlns="http://www.w3.org/2000/svg" xmlns:xlink="http://www.w3.org/1999/xlink" x="0px" y="0px"
	 viewBox="0 0 797.8 209.1" style="enable-background:new 0 0 797.8 209.1;" xml:space="preserve">
<style type="text/css">
	.st0{enable-background:new    ;}
	.st1{fill:#FFFFFF;}
	.st2{fill:#A00000;}
	.st3{fill:#C60A44;}
	.st4{fill:#777777;}
</style>
<g>
	<g class="st0">
		<path class="st1" d="M318.2,94.3l-2.8-12.2c-4.3-1.7-8.6-2.6-12.7-2.6c-4.8,0-9,1.2-12.6,3.5c-3.6,2.4-6.4,5.7-8.4,10
			c-2,4.3-3,9.3-3,15c0,5.8,1,10.8,3.1,15c2,4.2,4.9,7.5,8.7,9.8c3.8,2.3,8.2,3.5,13.4,3.5c5.9,0,11.6-1.4,17.1-4.2
			c0.9,1.1,1.6,2.5,1.9,4c-2.5,1.6-5.5,2.9-9.1,3.8s-7.2,1.5-10.8,1.5c-6.1,0-11.4-1.4-15.9-4.1c-4.5-2.7-8-6.6-10.5-11.6
			s-3.8-10.9-3.8-17.6c0-6.7,1.2-12.5,3.6-17.5c2.4-5,5.9-8.8,10.3-11.6c4.4-2.8,9.6-4.2,15.4-4.2c2.7,0,5.6,0.3,8.8,1
			c3.1,0.7,6,1.6,8.6,2.8c0.4,0.5,0.8,1,1.1,1.5c0.3,0.5,0.6,1,0.8,1.5l0.2,13c-0.4,0.3-0.9,0.4-1.6,0.4
			C319.5,95,318.8,94.8,318.2,94.3z"/>
		<path class="st1" d="M360.9,141.3c-5.9,0-11.1-1.4-15.6-4.2c-4.5-2.8-7.9-6.6-10.4-11.6c-2.5-5-3.7-10.8-3.7-17.5
			c0-6.7,1.2-12.5,3.7-17.5c2.5-5,5.9-8.8,10.4-11.6c4.5-2.8,9.7-4.2,15.6-4.2c5.9,0,11.1,1.4,15.6,4.2c4.5,2.8,7.9,6.6,10.4,11.6
			c2.5,5,3.7,10.8,3.7,17.5c0,6.7-1.2,12.6-3.7,17.5c-2.5,5-5.9,8.8-10.4,11.6C372.1,140,366.9,141.3,360.9,141.3z M360.9,136.6
			c4.8,0,9-1.2,12.5-3.5c3.6-2.4,6.3-5.7,8.3-10c2-4.3,3-9.3,3-15c0-5.7-1-10.7-3-15c-2-4.3-4.7-7.6-8.3-10
			c-3.6-2.4-7.8-3.5-12.5-3.5c-4.8,0-9,1.2-12.6,3.5c-3.6,2.4-6.3,5.7-8.3,10c-2,4.3-3,9.3-3,15c0,5.8,1,10.8,3,15.1
			c2,4.3,4.7,7.6,8.3,10C352,135.5,356.1,136.6,360.9,136.6z"/>
		<path class="st1" d="M428.3,140.3h-27.2c-0.3-0.4-0.4-0.9-0.4-1.6c0-0.7,0.2-1.4,0.7-2l6.7-0.8V80.4h-5.8c-1.1,0-1.6-0.5-1.6-1.4
			c0-0.5,0.2-1.3,0.5-2.4l0.2-0.8h26.9c6,0,11.2,1.3,15.6,3.9c4.4,2.6,7.9,6.3,10.4,11.1c2.5,4.8,3.7,10.5,3.7,17.2
			c0,6.7-1.2,12.4-3.7,17.2c-2.5,4.8-5.9,8.5-10.4,11.1C439.6,139,434.3,140.3,428.3,140.3z M413.7,135.7h14.6c5,0,9.3-1.2,12.8-3.5
			c3.5-2.3,6.2-5.5,8.1-9.7c1.9-4.2,2.9-9,2.9-14.5c0-5.5-1-10.4-2.9-14.5c-1.9-4.1-4.6-7.4-8.1-9.7c-3.5-2.3-7.8-3.5-12.8-3.5
			h-14.6V135.7z"/>
		<path class="st1" d="M515,140.3h-46.5c-0.3-0.4-0.4-0.9-0.4-1.6c0-0.7,0.2-1.4,0.7-2l6.7-0.8V80.4h-5.8c-1.1,0-1.6-0.5-1.6-1.4
			c0-0.5,0.2-1.3,0.5-2.4l0.2-0.8H514c0.9,0.7,1.7,1.6,2.4,2.6l0.2,13.2c-0.4,0.3-0.9,0.4-1.6,0.4c-0.7,0-1.4-0.2-2-0.7l-2.5-10.9
			h-29.4v24.7h20l0.9-5.3c0.2-1.2,0.8-1.8,1.7-1.8c0.3,0,0.8,0.2,1.6,0.5l0.6,0.3v17.6c-0.4,0.3-0.9,0.4-1.6,0.4
			c-0.7,0-1.4-0.2-2-0.7l-1.2-6.5h-20v26.1h30.4l2.5-10.9c0.6-0.5,1.3-0.7,2-0.7c0.7,0,1.2,0.1,1.6,0.4l-0.2,13.2
			C516.8,138.7,516,139.6,515,140.3z"/>
	</g>
	<g class="st0">
		<path class="st1" d="M602.6,85.2c0,4.1-1.1,7.8-3.4,11c-2.3,3.2-5.4,5.9-9.3,8c2.5,1.7,4.5,3.8,6,6.3s2.2,5.2,2.2,8.2
			c0,3.6-1.1,7.2-3.2,10.7c-2.2,3.5-5,6.6-8.6,9.3c-3.6,2.7-7.7,4.9-12.3,6.5c-4.6,1.7-9.3,2.5-14.1,2.5c-5.2,0-9.8-1-13.7-2.9
			c-3.9-2-6.9-4.8-9.1-8.4c0.7-2,1.5-4.5,2.6-7.5c1.1-3,2.3-6.1,3.7-9.4c1.3-3.3,2.7-6.6,4-9.9c1.4-3.3,2.7-6.2,3.9-8.8
			c2.5-5.7,4.8-10.4,6.8-14.1c2-3.7,3.8-6.7,5.5-8.9c-3.7,1.1-7,2.4-10,3.9s-5.2,2.8-6.6,4.1c-0.6-0.4-1.2-1-1.8-1.8
			c-0.6-0.8-1.2-1.7-1.8-2.7c-0.6-1-1-1.9-1.4-2.9c-0.4-1-0.6-1.9-0.6-2.7c1.7-1.2,4-2.4,6.8-3.5c2.8-1.1,5.8-2,9-2.8
			c3.3-0.8,6.6-1.4,10-1.9c3.4-0.5,6.7-0.7,9.8-0.7c8,0,14.3,1.6,18.8,4.8C600.4,75.1,602.6,79.6,602.6,85.2z M564.5,109.1
			c-1.3-0.6-2.4-1.5-3.5-2.7c-1.5,3.4-3,6.7-4.3,10c-1.4,3.3-2.6,6.3-3.7,9.1s-1.9,5.2-2.6,7.3c-0.7,2.1-1,3.6-1.1,4.5
			c0.9,0.5,2,0.9,3.3,1.2c1.3,0.3,2.9,0.4,4.8,0.4c4.5,0,8.9-0.6,13-1.9c4.1-1.3,7.8-3,10.9-5.2c3.1-2.2,5.6-4.6,7.5-7.5
			c1.9-2.8,2.8-5.7,2.8-8.8c0-4.4-1.9-7.6-5.7-9.5c-5.2,2.1-11.1,3.2-17.6,3.2c-0.9,0-1.7,0-2.2,0S565.2,109.3,564.5,109.1z
			 M583.9,74.4c-1.4,0-2.9,0.1-4.5,0.2c-1.6,0.2-3.2,0.4-5,0.8c0.3,0.3,0.5,0.6,0.7,0.9c0.2,0.3,0.3,0.6,0.5,1
			c-0.6,0.8-1.3,2-2.2,3.5c-0.9,1.5-1.8,3.3-2.9,5.3c-1.1,2-2.2,4.3-3.3,6.8c-1.2,2.5-2.3,5-3.5,7.6c1.1-0.3,2.5-0.5,4.1-0.6
			c1.6-0.2,3.2-0.2,4.9-0.2c0.9,0,1.7,0,2.5,0.1c0.8,0.1,1.7,0.2,2.5,0.3c3.2-0.5,6.1-1.3,8.6-2.3c2.6-1,4.8-2.2,6.7-3.6
			c1.9-1.4,3.3-2.9,4.3-4.6c1-1.7,1.5-3.4,1.5-5.3c0-3.2-1.3-5.6-3.8-7.2C592.4,75.3,588.7,74.4,583.9,74.4z"/>
		<path class="st1" d="M631.8,138.1c-1.3-1.1-2.1-2.4-2.5-4c-0.4-1.6-0.6-3-0.6-4.1c0-1.4,0.2-2.6,0.5-3.6c-0.3,0-0.9,0.5-1.8,1.6
			c-0.9,1.1-1.9,2.3-3,3.8c-1.1,1.5-2.2,2.9-3.2,4.3c-1.1,1.4-1.9,2.4-2.4,3.1c-0.9,0.9-1.7,1.7-2.5,2.2c-0.8,0.5-1.4,0.8-1.9,0.9
			c-1.1,0-2.2-0.2-3.3-0.6c-1.2-0.4-2.3-0.9-3.3-1.6c-1-0.7-1.9-1.5-2.7-2.4c-0.8-0.9-1.3-2-1.5-3.2c0-1.9,0-3.4,0.1-4.6
			c0.1-1.2,0.3-2.5,0.7-3.9c0.6-2.5,1.5-5.4,2.7-8.6c1.2-3.2,2.5-6.3,4-9.4c1.5-3.1,3.2-6,5.1-8.7c1.9-2.7,3.9-4.8,6.1-6.4
			c0.6,0,1.3,0.1,2.1,0.2s1.6,0.3,2.5,0.5c0.8,0.3,1.6,0.6,2.4,1c0.8,0.4,1.4,0.8,2,1.5c-0.6,0.7-2.1,2.9-4.5,6.7
			c-2.4,3.8-5.2,9.3-8.2,16.4c-0.3,0.7-0.7,1.8-1.2,3.2c-0.5,1.4-0.9,2.9-1.4,4.4c-0.5,1.5-0.8,3-1.2,4.5c-0.3,1.5-0.4,2.6-0.4,3.5
			c0,0.5,0.1,0.9,0.2,1.2c0.2,0.3,0.3,0.5,0.4,0.6c1-0.4,2.3-1.5,3.8-3.3c1.5-1.8,3.7-4.6,6.4-8.3c0.7-0.9,1.5-2,2.4-3.2
			c0.9-1.2,1.8-2.5,2.8-3.9c0.9-1.4,1.8-2.8,2.6-4.2c0.8-1.5,1.5-2.9,2-4.4c0.3-0.8,0.6-1.8,1.1-2.9c0.4-1.1,1-2.2,1.6-3.5
			c0.6-1.2,1.4-2.4,2.2-3.6c0.8-1.2,1.8-2.4,3-3.5c0.9,0,1.8,0.1,2.8,0.3s2,0.5,2.8,0.8c0.9,0.3,1.7,0.6,2.4,1
			c0.7,0.4,1.2,0.8,1.5,1.2c-1.2,2.9-2.5,5.8-4,8.7c-1.5,2.9-2.8,5.7-4.1,8.4c-1.3,2.8-2.3,5.5-3.2,8.2c-0.9,2.7-1.3,5.4-1.3,8
			c0,1.4,0.1,2.6,0.4,3.7c0.2,1,0.5,1.9,0.8,2.6c0.3,0.7,0.5,1.3,0.8,1.8c0.2,0.5,0.3,0.9,0.3,1.2c0,0.1-0.1,0.2-0.2,0.3
			c-0.1,0.1-0.1,0.1-0.2,0.1c-0.5,0-1.1-0.1-1.8-0.3c-0.7-0.2-1.5-0.5-2.5-0.9c-0.9-0.4-1.8-0.8-2.7-1.2
			C633.5,139.2,632.6,138.7,631.8,138.1z"/>
		<path class="st1" d="M688.5,100.4c-0.1,1.3-0.3,2.6-0.7,4c-0.4,1.4-0.8,2.6-1.3,3.7c-0.5,1.1-1.1,2-1.7,2.8
			c-0.6,0.7-1.2,1.1-1.7,1.1c-0.7-0.1-1.2-0.6-1.3-1.5c0-0.2,0.1-0.5,0.2-1c0.2-0.4,0.4-0.9,0.5-1.4c0.2-0.5,0.4-1.1,0.6-1.6
			c0.2-0.5,0.2-1,0.2-1.4c0-0.9-0.2-1.7-0.7-2.4c-0.4-0.6-1-1-1.8-1c-2.7,0-4.7,1.7-6.1,5c-1.4,3.3-2.1,8.2-2.1,14.6
			c0,0.7,0,1.1,0.1,1.2c1.4,0,2.6,0,3.8,0c1.1,0,2.2,0,3.2,0c0.1,0.1,0.1,0.4,0.1,0.8c0,0.6-0.1,1-0.4,1.3c-1.5,0.3-2.8,0.6-3.6,0.8
			c-0.9,0.2-1.6,0.4-2,0.6c-0.5,0.2-0.8,0.4-0.9,0.6c-0.1,0.2-0.1,0.5-0.1,0.9c0,0.5,0,1.1,0,1.6c0,0.5,0,1.2,0,2
			c0,5.6-1.5,10.1-4.5,13.5c-3,3.4-7.2,5.4-12.7,5.9c-0.9-0.1-1.9-0.3-2.9-0.8c-1-0.5-2-1.1-2.9-1.8c-0.9-0.7-1.7-1.6-2.3-2.5
			c-0.7-0.9-1.1-1.8-1.4-2.8c0-2.6,0.5-5,1.6-7.3c1.1-2.3,2.5-4.4,4.3-6.1c1.8-1.8,4-3.2,6.5-4.3c2.5-1.1,5.2-1.7,8.2-1.7
			c0-1.7-0.2-3.3-0.5-4.9c-0.3-1.6-0.7-3.2-1.1-4.7c-0.4-1.5-0.7-3-1-4.4c-0.3-1.4-0.5-2.9-0.5-4.3c0-1.8,0.4-3.6,1.1-5.4
			c0.7-1.8,1.7-3.4,2.9-4.9c1.2-1.5,2.6-2.8,4.2-3.9c1.6-1.1,3.3-1.8,5-2.2c0.7,0.2,1.7,0.8,3,1.8c1.2,1,2.5,2.1,3.6,3.2
			c1.2,1.2,2.3,2.4,3.2,3.7C687.8,98.6,688.3,99.6,688.5,100.4z M655.5,146c1.6-0.7,3.1-1.6,4.5-2.9c1.4-1.3,2.7-2.7,3.8-4.3
			c1.1-1.6,1.9-3.3,2.5-5.1c0.6-1.8,1-3.6,1-5.3c-1.3,0.2-2.8,0.8-4.4,1.9c-1.6,1-3.1,2.3-4.5,3.7c-1.4,1.4-2.6,2.9-3.5,4.5
			c-0.9,1.5-1.4,2.9-1.4,4C653.5,143.9,654.2,145.1,655.5,146z"/>
		<path class="st1" d="M688.5,138.6c0-2.3,0.2-5.1,0.7-8.2c0.5-3.2,1.2-6.5,2-10.1c0.9-3.6,2-7.4,3.2-11.3c1.2-3.9,2.6-7.9,4.2-11.8
			c1.3-3.5,2.9-7.1,4.6-10.7c1.8-3.6,3.7-7.1,5.8-10.6c2.1-3.5,4.2-6.8,6.5-9.9c2.2-3.1,4.5-6,6.8-8.6c1.1,0,2.2,0.1,3.5,0.4
			c1.2,0.3,2.4,0.6,3.6,1c1.2,0.4,2.2,1,3.2,1.5c1,0.6,1.8,1.2,2.3,1.8c-5,5.1-9.5,10.3-13.5,15.5c-4,5.2-7.2,10.2-9.5,14.8
			c-1.3,2.5-2.4,4.9-3.4,7.1c-1,2.2-2,4.4-2.9,6.5c-0.9,2.2-1.6,4.3-2.3,6.5c-0.7,2.2-1.4,4.5-2,6.8c12.8-16.3,22.3-24.5,28.5-24.5
			c1.7,0,3.6,0.6,5.6,1.7c2,1.1,3.8,2.7,5.3,4.6c-2.1,2.3-4.2,5-6.4,8.2c-2.2,3.2-4.2,6.4-6,9.7c-1.8,3.2-3.3,6.2-4.5,9
			c-1.2,2.8-1.8,4.8-1.8,6.2c0,0.7,0.1,1.1,0.3,1.3c0.2,0.2,0.6,0.3,1.3,0.3c1,0,1.8-0.1,2.4-0.4c0.6-0.3,1-0.4,1.1-0.4
			c0.3,0.5,0.5,0.9,0.6,1.1c0.1,0.2,0.1,0.4,0.1,0.5c0,0.3-0.4,0.6-1.2,1.1s-1.8,1-2.8,1.5c-1.1,0.5-2.2,1-3.2,1.4
			c-1.1,0.4-1.9,0.6-2.4,0.6c-0.7,0-1.3-0.2-2-0.5c-0.7-0.4-1.2-0.9-1.8-1.5s-0.9-1.3-1.2-2c-0.3-0.7-0.4-1.5-0.4-2.3
			c0-1,0.3-2.5,0.8-4.5c0.6-2,1.3-4.3,2.3-6.9c1-2.6,2.2-5.5,3.6-8.6c1.4-3.1,2.9-6.3,4.5-9.6c0-0.3-0.1-0.4-0.4-0.4
			c-0.2,0-0.7,0.3-1.5,0.8c-0.8,0.5-1.6,1.1-2.3,1.6c-2.4,1.8-4.8,4-7.2,6.7c-2.4,2.6-4.8,5.5-7.1,8.7c-2.3,3.1-4.5,6.4-6.5,9.9
			c-2,3.5-3.8,7-5.2,10.6c-0.2,0.5-0.5,0.9-0.9,1.3c-0.4,0.4-0.7,0.6-1,0.6c-0.2,0-0.5-0.2-0.9-0.7c-0.4-0.5-0.7-1-1-1.8
			c-0.3-0.7-0.6-1.4-0.8-2.1C688.7,139.8,688.5,139.2,688.5,138.6z"/>
		<path class="st1" d="M740.4,133.6c0-0.6,0.1-1.3,0.2-2.2c0.1-0.9,0.3-2.1,0.5-3.6c0.3-1.5,0.6-3.3,1-5.5c0.4-2.1,1-4.7,1.7-7.7
			c0.1-0.7,0.4-1.7,0.9-3.2c0.5-1.5,1.1-3,1.8-4.6c0.8-1.6,1.7-3.2,2.8-4.8c1.1-1.5,2.4-2.7,4-3.4c1.1,0.3,2.6,1,4.5,2
			c1.9,1.1,3.5,2.6,4.8,4.6c-1.5,1.7-2.8,3.5-3.8,5.2c-1,1.7-2,3.5-2.8,5.4c-0.8,1.9-1.6,3.8-2.3,5.8c-0.7,2-1.5,4.1-2.3,6.3
			c-0.7,1.9-1.4,3.8-2,5.8c-0.6,2-0.9,3.7-1,5.2c0,1.2,0,2,0,2.5c0,0.5-0.2,0.8-0.5,0.8c-0.3,0-0.8-0.2-1.6-0.5
			c-0.8-0.3-1.6-0.8-2.5-1.5c-0.8-0.7-1.6-1.6-2.2-2.7C740.8,136.4,740.4,135.1,740.4,133.6z M759.5,90.2c0-0.4,0.1-1,0.3-1.8
			c-0.3-0.3-0.6-0.8-0.8-1.5c-0.2-0.7-0.4-1.3-0.4-1.8c0-0.6,0.1-1.4,0.2-2.5c0.2-1,0.4-2.1,0.7-3.3c0.3-1.2,0.6-2.5,1-3.8
			c0.4-1.3,0.8-2.5,1.2-3.5c0.8,0,1.8,0.2,2.9,0.6c1.2,0.4,2.4,1,3.6,1.7c1.2,0.7,2.3,1.5,3.3,2.3c1,0.8,1.8,1.6,2.3,2.4
			c-0.7,0.7-1.7,1.8-2.9,3c-1.2,1.3-2.4,2.7-3.5,4.1c-1.1,1.4-2.2,2.8-3.1,4.1c-0.9,1.3-1.5,2.2-1.8,2.7c-0.8-0.1-1.5-0.5-2.1-1
			C759.8,91.3,759.5,90.8,759.5,90.2z"/>
	</g>
</g>
<g>
	<g>
		<g>
			
				<rect x="-7.9" y="79.5" transform="matrix(0.7071 -0.7071 0.7071 0.7071 -50.5493 49.6259)" class="st2" width="85" height="12.7"/>
			
				<rect x="28.2" y="94.4" transform="matrix(0.7071 -0.7071 0.7071 0.7071 -86.7022 64.5489)" class="st3" width="12.7" height="85"/>
		</g>
		<g>
			
				<rect x="194.1" y="43.3" transform="matrix(0.7071 -0.7071 0.7071 0.7071 -1.9541 166.8653)" class="st3" width="12.7" height="85"/>
			
				<rect x="157.9" y="130.6" transform="matrix(0.7071 -0.7071 0.7071 0.7071 -38.1489 181.8464)" class="st2" width="85" height="12.7"/>
		</g>
	</g>
	<g>
		<g>
			<path class="st1" d="M138.3,81.3c0,0,17.6-36.6,20.1-44.6c0,0,0.8-1.5,2.8-0.8c1.9,0.7,4.1,2.1,4.1,2.1s1.5,0.9,1.1,2.6
				c-0.4,1.7-19.6,44.3-20.2,44.7c0,0,3.9,2.1,4,3.3c0.1,1.2-5.5-0.6-5.5-0.6s-9.8,20.3-24,43.4C104.8,157,84.1,185.9,73,196.7
				c-1.4,1-6.4,2.6-9.4,2.7c0,0,21.2-27,39.6-54.9c17.8-27.1,32.1-55.3,34.1-60.3c0,0-5.1-3.4-4.5-4.2S138.3,81.3,138.3,81.3z"/>
			<g>
				<path class="st4" d="M137.3,89.1l1.4,0.7c0,0-5.7,11.4-12.5,23.8c-6.4,11.6-13.9,23.6-17.8,29.8c-2.3,3.7-9.5,14.5-16.5,24.4
					c-4,5.7-7.9,10.7-11,14.7c-9.1,11.4-10.5,10.2-10.5,10.2s3.5-4.1,8.2-9.9c3.3-4,6.8-9,10.6-14.2c2.5-3.5,6.7-9.3,10.7-15.3
					c4.8-7.3,8.5-12.9,10.7-16.7c4.4-7.3,9.4-15.4,13.8-23.2C131.8,100.4,137.3,89.1,137.3,89.1z"/>
				<path class="st4" d="M135,81.4c0,0,1.1-0.5,6.5,2.1c6.9,3.4,7,4.5,7,4.5s-0.4-0.1-2-1.1c-1.3-0.8-3.4-1.9-4.4-2.4
					C138.2,82.5,135,81.4,135,81.4z"/>
				<polygon class="st4" points="142.2,78.5 143.8,80.2 146.2,80.8 144.6,78.8 				"/>
				<polygon class="st4" points="143.5,75.8 145.2,77.5 147.6,78.1 146,76.2 				"/>
				<polygon class="st4" points="144.8,73.1 146.5,74.9 148.8,75.3 147.1,73.4 				"/>
				<polygon class="st4" points="145.9,70.7 147.6,72.3 150.1,72.8 148.3,70.9 				"/>
				<polygon class="st4" points="147.2,68.4 148.7,70 151.1,70.6 149.6,68.7 				"/>
				<polygon class="st4" points="148.3,65.7 149.8,67.3 152.2,68 150.7,66 				"/>
				<polygon class="st4" points="149.3,63.3 150.9,64.9 153.2,65.5 151.7,63.7 				"/>
				<polygon class="st4" points="150.3,60.9 151.9,62.6 154.3,63.2 152.7,61.2 				"/>
				<polygon class="st4" points="151.5,58.3 153.2,60 155.4,60.6 153.9,58.6 				"/>
				<polygon class="st4" points="152.5,56.2 154.2,57.7 156.6,58.1 154.9,56.3 				"/>
				<polygon class="st4" points="153.6,53.8 155.5,55.5 157.7,55.9 156.1,54.1 				"/>
				<polygon class="st4" points="154.8,51.4 156.6,53 158.8,53.4 157.2,51.6 				"/>
				<polygon class="st4" points="155.7,48.8 157.4,50.4 159.8,50.8 158.1,49 				"/>
				<polygon class="st4" points="156.8,46.5 158.5,48.1 160.9,48.6 159.1,46.7 				"/>
				<polygon class="st4" points="157.7,44 159.5,45.7 161.6,46 160,44.2 				"/>
				<polygon class="st4" points="158.6,41.5 160.3,43 162.7,43.5 161.1,41.7 				"/>
				<path class="st4" d="M158.8,37.3c0,0,1-0.4,2-0.2c1.5,0.4,2.5,1.2,3.2,1.8c0.8,0.6,1.6,1.8,1.6,1.8s0.3-1.1-0.5-2
					s-2.9-1.9-3.8-2.2C160.8,36.4,159,36.2,158.8,37.3z"/>
			</g>
		</g>
		<g>
			<path class="st1" d="M121.3,56.7c0,0,7.3-45.5,7.4-55c0,0,0.4-1.9,2.8-1.8s5.1,0.9,5.1,0.9s1.9,0.5,2,2.4s-7,54.4-7.5,55.1
				c0,0,4.9,1.1,5.4,2.3s-6.2,1.1-6.2,1.1s-4.1,25.2-12.1,54.8c-8.8,33-22,71-30.6,86.4c-1.2,1.5-6.1,4.9-9.3,6
				c0,0,14.3-36.2,25.2-72.4c10.6-35.1,17-70.4,17.5-76.5c0,0-6.7-2.1-6.3-3.1S121.3,56.7,121.3,56.7z"/>
			<g>
				<path class="st4" d="M122.7,65.5l1.8,0.3c0,0-2.5,14.2-5.8,29.9c-3.2,14.7-7.4,30.1-9.6,38.1c-1.3,4.8-5.6,18.9-10,31.9
					c-2.5,7.5-5.1,14.2-7.2,19.5c-6.2,15.3-8.1,14.5-8.1,14.5s2.5-5.6,5.7-13.4c2.2-5.4,4.5-12,6.9-18.9c1.6-4.6,4.3-12.3,6.7-20.1
					c2.9-9.5,5-16.7,6.2-21.6c2.4-9.4,5.3-19.7,7.5-29.7C120.4,79.5,122.7,65.5,122.7,65.5z"/>
				<path class="st4" d="M117.8,57.9c0,0,1.1-0.9,7.7,0.2c8.6,1.4,9,2.6,9,2.6s-0.4,0-2.6-0.6c-1.6-0.4-4.3-1-5.5-1.2
					C121.6,58.1,117.8,57.9,117.8,57.9z"/>
				<polygon class="st4" points="124.6,52.4 126.9,53.7 129.8,53.6 127.3,52 				"/>
				<polygon class="st4" points="125.2,49 127.6,50.4 130.4,50.2 128,48.6 				"/>
				<polygon class="st4" points="125.7,45.7 128.1,47.1 130.7,46.8 128.3,45.3 				"/>
				<polygon class="st4" points="126.2,42.7 128.5,43.9 131.3,43.6 128.8,42.1 				"/>
				<polygon class="st4" points="126.7,39.8 129,41.1 131.8,41 129.5,39.3 				"/>
				<polygon class="st4" points="127.1,36.6 129.3,37.8 132.1,37.7 129.8,36.1 				"/>
				<polygon class="st4" points="127.4,33.5 129.7,34.8 132.4,34.7 130.1,33.2 				"/>
				<polygon class="st4" points="127.8,30.7 130,32 132.8,31.8 130.4,30.2 				"/>
				<polygon class="st4" points="128.1,27.4 130.5,28.8 133.2,28.7 130.9,27 				"/>
				<polygon class="st4" points="128.6,24.8 131,25.9 133.6,25.6 131.2,24.2 				"/>
				<polygon class="st4" points="129,21.9 131.6,23.2 134.2,22.9 131.8,21.4 				"/>
				<polygon class="st4" points="129.5,18.9 132,20.1 134.6,19.8 132.2,18.3 				"/>
				<polygon class="st4" points="129.7,15.8 132.1,16.9 134.8,16.6 132.4,15.2 				"/>
				<polygon class="st4" points="130.1,12.9 132.4,14.1 135.2,13.9 132.7,12.4 				"/>
				<polygon class="st4" points="130.2,9.9 132.8,11.2 135.2,10.8 132.8,9.4 				"/>
				<polygon class="st4" points="130.4,6.9 132.8,8.1 135.6,7.8 133.2,6.3 				"/>
				<path class="st4" d="M129.4,2.3c0,0,0.9-0.8,2.1-0.8c1.8-0.1,3.1,0.5,4.1,0.9s2.3,1.4,2.3,1.4s0-1.3-1.2-2
					c-1.2-0.8-3.7-1.1-4.8-1.1C131.2,0.6,129.2,1.1,129.4,2.3z"/>
			</g>
		</g>
	</g>
</g>
</svg>
