<?xml version="1.0" encoding="utf-8"?>
<!-- Generator: Adobe Illustrator 22.1.0, SVG Export Plug-In . SVG Version: 6.00 Build 0)  -->
<svg version="1.1" id="Layer_1" xmlns="http://www.w3.org/2000/svg" xmlns:xlink="http://www.w3.org/1999/xlink" x="0px" y="0px"
	 viewBox="0 0 362.4 322.5" style="enable-background:new 0 0 362.4 322.5;" xml:space="preserve">
<style type="text/css">
	.st0{fill:#FFFFFF;}
	.st1{fill:#555555;}
</style>
<g>
	<g>
		<g>
			
				<rect x="-12.2" y="139.5" transform="matrix(0.7071 -0.7071 0.7071 0.7071 -89.9843 81.4364)" class="st0" width="131" height="19.7"/>
			
				<rect x="43.5" y="162.6" transform="matrix(0.7071 -0.7071 0.7071 0.7071 -145.6322 104.524)" class="st0" width="19.7" height="131"/>
		</g>
		<g>
			
				<rect x="299.4" y="83.9" transform="matrix(0.7071 -0.7071 0.7071 0.7071 -15.0458 262.4153)" class="st0" width="19.7" height="131"/>
			
				<rect x="243.7" y="218.2" transform="matrix(0.7071 -0.7071 0.7071 0.7071 -70.6911 285.4468)" class="st0" width="131" height="19.7"/>
		</g>
	</g>
	<g>
		<g>
			<path class="st0" d="M213.3,125.4c0,0,27.2-56.5,31-68.8c0,0,1.3-2.2,4.3-1.2s6.3,3.2,6.3,3.2s2.3,1.4,1.7,4s-30.3,68.3-31.2,69
				c0,0,6,3.3,6.2,5.2s-8.5-1-8.5-1s-15.1,31.2-37,66.8c-24.4,39.6-56.3,84-73.5,100.8c-2.2,1.6-9.9,4-14.5,4.2
				c0,0,32.7-41.6,61.1-84.7c27.5-41.7,49.5-85.2,52.6-93c0,0-7.9-5.3-7-6.4C205.7,122.3,213.3,125.4,213.3,125.4z"/>
			<g>
				<path class="st1" d="M211.8,137.4l2.2,1.1c0,0-8.7,17.6-19.2,36.7c-9.8,17.9-21.4,36.4-27.4,46c-3.6,5.7-14.7,22.4-25.4,37.7
					c-6.2,8.8-12.2,16.5-17,22.6c-14,17.6-16.2,15.7-16.2,15.7s5.4-6.3,12.7-15.3c5-6.2,10.5-13.9,16.3-21.9
					c3.9-5.4,10.4-14.4,16.5-23.6c7.5-11.2,13-19.9,16.5-25.7c6.8-11.3,14.5-23.7,21.3-35.8C203.3,154.8,211.8,137.4,211.8,137.4z"
					/>
				<path class="st1" d="M208.3,125.5c0,0,1.7-0.8,10,3.2c10.7,5.2,10.8,6.9,10.8,6.9s-0.6-0.2-3.1-1.7c-2-1.2-5.2-2.9-6.8-3.7
					C213.2,127.3,208.3,125.5,208.3,125.5z"/>
				<polygon class="st1" points="219.3,121.1 221.8,123.7 225.6,124.7 223,121.5 				"/>
				<polygon class="st1" points="221.4,116.9 223.9,119.6 227.7,120.5 225.2,117.5 				"/>
				<polygon class="st1" points="223.3,112.8 225.9,115.4 229.4,116.1 226.9,113.3 				"/>
				<polygon class="st1" points="225.1,109 227.7,111.5 231.4,112.2 228.8,109.3 				"/>
				<polygon class="st1" points="227,105.4 229.4,108 233.1,108.9 230.7,105.9 				"/>
				<polygon class="st1" points="228.7,101.4 231.1,103.9 234.8,104.8 232.5,101.8 				"/>
				<polygon class="st1" points="230.3,97.6 232.7,100.1 236.3,101 233.9,98.2 				"/>
				<polygon class="st1" points="231.9,94 234.3,96.6 238,97.4 235.5,94.4 				"/>
				<polygon class="st1" points="233.6,89.8 236.2,92.6 239.7,93.4 237.4,90.3 				"/>
				<polygon class="st1" points="235.2,86.7 237.9,89 241.5,89.7 238.8,86.8 				"/>
				<polygon class="st1" points="236.9,83 239.8,85.7 243.2,86.3 240.8,83.4 				"/>
				<polygon class="st1" points="238.8,79.3 241.5,81.8 245,82.4 242.4,79.5 				"/>
				<polygon class="st1" points="240.2,75.3 242.8,77.7 246.5,78.4 243.8,75.6 				"/>
				<polygon class="st1" points="241.8,71.7 244.4,74.2 248.1,74.9 245.3,72.1 				"/>
				<polygon class="st1" points="243.2,67.8 246,70.5 249.3,70.9 246.7,68.2 				"/>
				<polygon class="st1" points="244.6,63.9 247.2,66.4 250.9,67.1 248.4,64.3 				"/>
				<path class="st1" d="M245,57.6c0,0,1.5-0.7,3.1-0.3c2.4,0.6,3.8,1.9,5,2.7s2.4,2.7,2.4,2.7s0.5-1.6-0.8-3.1s-4.5-2.9-5.9-3.3
					C248.1,56.1,245.2,55.9,245,57.6z"/>
			</g>
		</g>
		<g>
			<path class="st0" d="M187.1,87.5c0,0,11.2-70.1,11.4-84.8c0,0,0.7-2.9,4.2-2.7c3.6,0.2,7.9,1.4,7.9,1.4s2.9,0.8,3.1,3.7
				c0.2,3-10.8,83.9-11.6,85c0,0,7.6,1.7,8.4,3.6s-9.5,1.7-9.5,1.7s-6.4,38.8-18.6,84.6c-13.6,50.9-34,109.5-47.2,133.2
				c-1.8,2.4-9.5,7.5-14.4,9.2c0,0,22.1-55.8,38.9-111.7c16.3-54.2,26.2-108.5,27.1-118c0,0-10.3-3.2-9.7-4.7S187.1,87.5,187.1,87.5
				z"/>
			<g>
				<path class="st1" d="M189.3,101l2.8,0.5c0,0-3.8,21.9-9,46.1c-4.9,22.6-11.5,46.4-14.9,58.7c-2,7.3-8.7,29.1-15.4,49.2
					c-3.9,11.6-7.9,21.9-11.1,30.1c-9.5,23.6-12.5,22.3-12.5,22.3s3.8-8.6,8.8-20.7c3.5-8.4,7-18.4,10.6-29.1
					c2.5-7.1,6.6-19,10.3-31c4.5-14.6,7.7-25.8,9.6-33.3c3.7-14.4,8.1-30.4,11.6-45.8C185.7,122.6,189.3,101,189.3,101z"/>
				<path class="st1" d="M181.6,89.2c0,0,1.6-1.4,11.9,0.2c13.3,2.2,14,4,14,4s-0.7,0-4-0.9c-2.5-0.7-6.6-1.5-8.6-1.8
					C187.6,89.6,181.6,89.2,181.6,89.2z"/>
				<polygon class="st1" points="192.2,80.8 195.7,82.9 200.1,82.7 196.3,80.1 				"/>
				<polygon class="st1" points="193.1,75.6 196.8,77.7 201.1,77.5 197.5,75 				"/>
				<polygon class="st1" points="193.9,70.5 197.6,72.6 201.6,72.1 197.9,69.9 				"/>
				<polygon class="st1" points="194.6,65.9 198.2,67.8 202.5,67.3 198.7,65 				"/>
				<polygon class="st1" points="195.4,61.4 198.9,63.4 203.3,63.2 199.7,60.7 				"/>
				<polygon class="st1" points="196,56.4 199.4,58.3 203.7,58.2 200.3,55.7 				"/>
				<polygon class="st1" points="196.5,51.7 200,53.7 204.1,53.5 200.7,51.2 				"/>
				<polygon class="st1" points="197.1,47.3 200.5,49.4 204.8,49.1 201.1,46.6 				"/>
				<polygon class="st1" points="197.6,42.3 201.3,44.4 205.4,44.2 201.9,41.6 				"/>
				<polygon class="st1" points="198.3,38.3 202,40 206.1,39.5 202.3,37.3 				"/>
				<polygon class="st1" points="199,33.8 203,35.8 206.9,35.3 203.3,33 				"/>
				<polygon class="st1" points="199.8,29.1 203.6,31 207.6,30.6 203.8,28.2 				"/>
				<polygon class="st1" points="200,24.3 203.7,26.1 207.9,25.7 204.1,23.5 				"/>
				<polygon class="st1" points="200.7,20 204.3,21.8 208.5,21.4 204.6,19.2 				"/>
				<polygon class="st1" points="200.9,15.3 204.8,17.2 208.5,16.7 204.9,14.5 				"/>
				<polygon class="st1" points="201.2,10.6 204.8,12.4 209.1,12 205.5,9.8 				"/>
				<path class="st1" d="M199.5,3.5c0,0,1.4-1.2,3.3-1.3c2.8-0.1,4.8,0.8,6.3,1.4s3.5,2.2,3.5,2.2s0-1.9-1.9-3.1
					C208.9,1.5,205,1,203.3,1C202.4,1,199.3,1.6,199.5,3.5z"/>
			</g>
		</g>
	</g>
</g>
</svg>
