<?xml version="1.0" encoding="utf-8"?>
<!-- Generator: Adobe Illustrator 22.1.0, SVG Export Plug-In . SVG Version: 6.00 Build 0)  -->
<svg version="1.1" id="Layer_1" xmlns="http://www.w3.org/2000/svg" xmlns:xlink="http://www.w3.org/1999/xlink" x="0px" y="0px"
	 viewBox="0 0 797.8 209.1" style="enable-background:new 0 0 797.8 209.1;" xml:space="preserve">
<style type="text/css">
	.st0{fill:#444444;}
	.st1{font-family:'ScopeOne-Regular';}
	.st2{font-size:100px;}
	.st3{fill:#333333;}
	.st4{font-family:'KaushanScript-Regular';}
	.st5{fill:#A00000;}
	.st6{fill:#C60A44;}
	.st7{fill:#222222;}
	.st8{fill:#FFFFFF;}
</style>
<g>
	<text transform="matrix(1 0 0 1 267.9445 140.3485)"><tspan x="0" y="0" class="st0 st1 st2">CODE</tspan><tspan x="255.7" y="0" class="st3 st4 st2">Bushi</tspan></text>
</g>
<g>
	<g>
		<g>
			
				<rect x="-7.9" y="79.5" transform="matrix(0.7071 -0.7071 0.7071 0.7071 -50.5773 49.5659)" class="st5" width="85" height="12.7"/>
			
				<rect x="-7.9" y="130.5" transform="matrix(0.7071 0.7071 -0.7071 0.7071 106.9007 15.6636)" class="st6" width="85" height="12.7"/>
		</g>
		<g>
			
				<rect x="158" y="79.5" transform="matrix(-0.7071 -0.7071 0.7071 -0.7071 281.5073 288.2745)" class="st6" width="85" height="12.7"/>
			
				<rect x="158" y="130.5" transform="matrix(-0.7071 0.7071 -0.7071 -0.7071 438.9854 91.9111)" class="st5" width="85" height="12.7"/>
		</g>
	</g>
	<g>
		<g>
			<path class="st7" d="M138.3,81.3c0,0,17.6-36.6,20.1-44.6c0,0,0.8-1.5,2.8-0.8c1.9,0.7,4.1,2.1,4.1,2.1s1.5,0.9,1.1,2.6
				c-0.4,1.7-19.6,44.3-20.2,44.7c0,0,3.9,2.1,4,3.3c0.1,1.2-5.5-0.6-5.5-0.6s-9.8,20.3-24,43.4C104.8,157,84.1,185.9,73,196.7
				c-1.4,1-6.4,2.6-9.4,2.7c0,0,21.2-27,39.6-54.9c17.8-27.1,32.1-55.3,34.1-60.3c0,0-5.1-3.4-4.5-4.2S138.3,81.3,138.3,81.3z"/>
			<g>
				<path class="st8" d="M137.3,89.1l1.4,0.7c0,0-5.7,11.4-12.5,23.8c-6.4,11.6-13.9,23.6-17.8,29.8c-2.3,3.7-9.5,14.5-16.5,24.4
					c-4,5.7-7.9,10.7-11,14.7c-9.1,11.4-10.5,10.2-10.5,10.2s3.5-4.1,8.2-9.9c3.3-4,6.8-9,10.6-14.2c2.5-3.5,6.7-9.3,10.7-15.3
					c4.8-7.3,8.5-12.9,10.7-16.7c4.4-7.3,9.4-15.4,13.8-23.2C131.8,100.4,137.3,89.1,137.3,89.1z"/>
				<path class="st8" d="M135,81.4c0,0,1.1-0.5,6.5,2.1c6.9,3.4,7,4.5,7,4.5s-0.4-0.1-2-1.1c-1.3-0.8-3.4-1.9-4.4-2.4
					C138.2,82.5,135,81.4,135,81.4z"/>
				<polygon class="st8" points="142.2,78.5 143.8,80.2 146.2,80.8 144.6,78.8 				"/>
				<polygon class="st8" points="143.5,75.8 145.2,77.5 147.6,78.1 146,76.2 				"/>
				<polygon class="st8" points="144.8,73.1 146.5,74.9 148.8,75.3 147.1,73.4 				"/>
				<polygon class="st8" points="145.9,70.7 147.6,72.3 150.1,72.8 148.3,70.9 				"/>
				<polygon class="st8" points="147.2,68.4 148.7,70 151.1,70.6 149.6,68.7 				"/>
				<polygon class="st8" points="148.3,65.7 149.8,67.3 152.2,68 150.7,66 				"/>
				<polygon class="st8" points="149.3,63.3 150.9,64.9 153.2,65.5 151.7,63.7 				"/>
				<polygon class="st8" points="150.3,60.9 151.9,62.6 154.3,63.2 152.7,61.2 				"/>
				<polygon class="st8" points="151.5,58.3 153.2,60 155.4,60.6 153.9,58.6 				"/>
				<polygon class="st8" points="152.5,56.2 154.2,57.7 156.6,58.1 154.9,56.3 				"/>
				<polygon class="st8" points="153.6,53.8 155.5,55.5 157.7,55.9 156.1,54.1 				"/>
				<polygon class="st8" points="154.8,51.4 156.6,53 158.8,53.4 157.2,51.6 				"/>
				<polygon class="st8" points="155.7,48.8 157.4,50.4 159.8,50.8 158.1,49 				"/>
				<polygon class="st8" points="156.8,46.5 158.5,48.1 160.9,48.6 159.1,46.7 				"/>
				<polygon class="st8" points="157.7,44 159.5,45.7 161.6,46 160,44.2 				"/>
				<polygon class="st8" points="158.6,41.5 160.3,43 162.7,43.5 161.1,41.7 				"/>
				<path class="st8" d="M158.8,37.3c0,0,1-0.4,2-0.2c1.5,0.4,2.5,1.2,3.2,1.8c0.8,0.6,1.6,1.8,1.6,1.8s0.3-1.1-0.5-2
					c-0.8-0.9-2.9-1.9-3.8-2.2C160.8,36.4,159,36.2,158.8,37.3z"/>
			</g>
		</g>
		<g>
			<path class="st7" d="M121.3,56.7c0,0,7.3-45.5,7.4-55c0,0,0.4-1.9,2.8-1.8s5.1,0.9,5.1,0.9s1.9,0.5,2,2.4s-7,54.4-7.5,55.1
				c0,0,4.9,1.1,5.4,2.3s-6.2,1.1-6.2,1.1s-4.1,25.2-12.1,54.8c-8.8,33-22,71-30.6,86.4c-1.2,1.5-6.1,4.9-9.3,6
				c0,0,14.3-36.2,25.2-72.4c10.6-35.1,17-70.4,17.5-76.5c0,0-6.7-2.1-6.3-3.1S121.3,56.7,121.3,56.7z"/>
			<g>
				<path class="st8" d="M122.7,65.5l1.8,0.3c0,0-2.5,14.2-5.8,29.9c-3.2,14.7-7.4,30.1-9.6,38.1c-1.3,4.8-5.6,18.9-10,31.9
					c-2.5,7.5-5.1,14.2-7.2,19.5c-6.2,15.3-8.1,14.5-8.1,14.5s2.5-5.6,5.7-13.4c2.2-5.4,4.5-12,6.9-18.9c1.6-4.6,4.3-12.3,6.7-20.1
					c2.9-9.5,5-16.7,6.2-21.6c2.4-9.4,5.3-19.7,7.5-29.7C120.4,79.5,122.7,65.5,122.7,65.5z"/>
				<path class="st8" d="M117.8,57.9c0,0,1.1-0.9,7.7,0.2c8.6,1.4,9,2.6,9,2.6s-0.4,0-2.6-0.6c-1.6-0.4-4.3-1-5.5-1.2
					C121.6,58.1,117.8,57.9,117.8,57.9z"/>
				<polygon class="st8" points="124.6,52.4 126.9,53.7 129.8,53.6 127.3,52 				"/>
				<polygon class="st8" points="125.2,49 127.6,50.4 130.4,50.2 128,48.6 				"/>
				<polygon class="st8" points="125.7,45.7 128.1,47.1 130.7,46.8 128.3,45.3 				"/>
				<polygon class="st8" points="126.2,42.7 128.5,43.9 131.3,43.6 128.8,42.1 				"/>
				<polygon class="st8" points="126.7,39.8 129,41.1 131.8,41 129.5,39.3 				"/>
				<polygon class="st8" points="127.1,36.6 129.3,37.8 132.1,37.7 129.8,36.1 				"/>
				<polygon class="st8" points="127.4,33.5 129.7,34.8 132.4,34.7 130.1,33.2 				"/>
				<polygon class="st8" points="127.8,30.7 130,32 132.8,31.8 130.4,30.2 				"/>
				<polygon class="st8" points="128.1,27.4 130.5,28.8 133.2,28.7 130.9,27 				"/>
				<polygon class="st8" points="128.6,24.8 131,25.9 133.6,25.6 131.2,24.2 				"/>
				<polygon class="st8" points="129,21.9 131.6,23.2 134.2,22.9 131.8,21.4 				"/>
				<polygon class="st8" points="129.5,18.9 132,20.1 134.6,19.8 132.2,18.3 				"/>
				<polygon class="st8" points="129.7,15.8 132.1,16.9 134.8,16.6 132.4,15.2 				"/>
				<polygon class="st8" points="130.1,12.9 132.4,14.1 135.2,13.9 132.7,12.4 				"/>
				<polygon class="st8" points="130.2,9.9 132.8,11.2 135.2,10.8 132.8,9.4 				"/>
				<polygon class="st8" points="130.4,6.9 132.8,8.1 135.6,7.8 133.2,6.3 				"/>
				<path class="st8" d="M129.4,2.3c0,0,0.9-0.8,2.1-0.8c1.8-0.1,3.1,0.5,4.1,0.9c1,0.4,2.3,1.4,2.3,1.4s0-1.3-1.2-2
					c-1.2-0.8-3.7-1.1-4.8-1.1C131.2,0.6,129.2,1.1,129.4,2.3z"/>
			</g>
		</g>
	</g>
</g>
</svg>
